<svg width="143" height="63" viewBox="0 0 143 63" fill="none" xmlns="http://www.w3.org/2000/svg">
<path fill-rule="evenodd" clip-rule="evenodd" d="M54.156 22.0961C54.7442 22.8039 54.9054 23.7558 54.7445 24.6811L50.3304 49.4049L31.8992 45.5175L30.4278 40.2306L43.9099 27.6222L30.6725 28.2979L30.3893 22.1414L51.813 21.0478C52.7049 21.0023 53.5678 21.3883 54.156 22.0961ZM47.5271 32.4862L38.9745 40.6165L45.8816 41.9529L47.5271 32.4862Z" fill="white"/>
<path fill-rule="evenodd" clip-rule="evenodd" d="M140.91 22.0383C141.498 22.713 141.747 23.6206 141.586 24.5027L137.567 49.3622L119.641 47.3834L117.624 40.1179L130.674 27.3067L117.449 28.4076L117.166 22.4124L138.57 21.0389C139.461 20.9955 140.323 21.3635 140.91 22.0383ZM134.288 31.9438L124.144 41.9815L132.535 44.0667L134.288 31.9438Z" fill="white"/>
<path fill-rule="evenodd" clip-rule="evenodd" d="M1.71207 22.2212C2.32242 21.451 3.23942 21.0172 4.19746 21.0455L27.2527 22.1414L26.2022 44.7326L12.0406 46.1149L15.4042 60.4451L9.44115 62L1.07386 24.9872C0.866252 24.012 1.10173 22.9914 1.71207 22.2212ZM10.5859 39.7466L7.73743 27.6355L20.8138 28.0202L20.2725 38.8011L10.5859 39.7466Z" fill="white"/>
<path fill-rule="evenodd" clip-rule="evenodd" d="M76.8046 21.0445C78.4693 20.9175 79.9371 22.1335 80.1308 23.8003L82.7784 47.8499L60.5949 51.0004L58.6007 61.23L52.4844 60.0762L59.0846 24.7237C59.3445 23.3318 60.5023 22.2891 61.9071 22.1819L76.8046 21.0445ZM61.9071 43.4032L75.8711 41.0583L74.2965 27.5094L64.7603 28.2375L61.9071 43.4032Z" fill="white"/>
<path fill-rule="evenodd" clip-rule="evenodd" d="M86.031 48.1609L83.9401 27.791L91.9882 30.2351C92.7093 30.4541 93.1874 31.1397 93.1454 31.8945L92.2263 49.4049L86.031 48.1609Z" fill="white"/>
<path fill-rule="evenodd" clip-rule="evenodd" d="M101.091 4.00874C99.8675 4.44956 98.8939 5.57523 98.8089 6.87681L96.2342 48.2394L116.506 49.2807L115.375 45.5843L113.866 41.1297L103.117 42.4566L104.72 29.4719L114.375 28.7239L112.671 22.6596L105.38 24.0696L108.02 1.51221L101.091 4.00874Z" fill="white"/>
<path d="M54.7445 24.6811L55.2368 24.7689L55.2372 24.7667L54.7445 24.6811ZM54.156 22.0961L53.7714 22.4157L54.156 22.0961ZM50.3304 49.4049L50.2272 49.8941L50.8226 49.4927L50.3304 49.4049ZM31.8992 45.5175L31.4176 45.6515L31.7961 46.0067L31.8992 45.5175ZM30.4278 40.2306L30.0863 39.8654L29.9462 40.3647L30.4278 40.2306ZM43.9099 27.6222L44.2514 27.9874L43.8844 27.1229L43.9099 27.6222ZM30.6725 28.2979L30.173 28.3209L30.698 28.7973L30.6725 28.2979ZM30.3893 22.1414L30.3638 21.642L29.8898 22.1643L30.3893 22.1414ZM51.813 21.0478L51.8385 21.5471L51.813 21.0478ZM38.9745 40.6165L38.63 40.2541L38.8795 41.1074L38.9745 40.6165ZM47.5271 32.4862L48.0197 32.5718L47.1826 32.1238L47.5271 32.4862ZM45.8816 41.9529L45.7866 42.4438L46.3742 42.0385L45.8816 41.9529ZM141.586 24.5027L141.094 24.4131L141.093 24.4229L141.586 24.5027ZM140.91 22.0383L140.533 22.3667L140.91 22.0383ZM137.567 49.3622L137.512 49.8592L138.06 49.442L137.567 49.3622ZM119.641 47.3834L119.159 47.5171L119.586 47.8804L119.641 47.3834ZM117.624 40.1179L117.274 39.7611L117.142 40.2516L117.624 40.1179ZM130.674 27.3067L131.024 27.6635L130.633 26.8084L130.674 27.3067ZM117.449 28.4076L116.95 28.4311L117.491 28.9058L117.449 28.4076ZM117.166 22.4124L117.134 21.9135L116.667 22.436L117.166 22.4124ZM138.57 21.0389L138.545 20.5394L138.538 20.5399L138.57 21.0389ZM124.144 41.9815L123.792 41.6261L124.023 42.4668L124.144 41.9815ZM134.288 31.9438L134.783 32.0153L133.936 31.5884L134.288 31.9438ZM132.535 44.0667L132.415 44.5519L133.03 44.1382L132.535 44.0667ZM4.19746 21.0455L4.2212 20.546L4.2122 20.5457L4.19746 21.0455ZM1.71207 22.2212L1.3202 21.9107H1.3202L1.71207 22.2212ZM27.2527 22.1414L27.7522 22.1646L27.7754 21.6656L27.2765 21.6419L27.2527 22.1414ZM26.2022 44.7326L26.2508 45.2303L26.6816 45.1882L26.7017 44.7559L26.2022 44.7326ZM12.0406 46.1149L11.992 45.6173L11.4233 45.6728L11.5539 46.2292L12.0406 46.1149ZM15.4042 60.4451L15.5303 60.9289L16.0024 60.8058L15.8909 60.3308L15.4042 60.4451ZM9.44115 62L8.95345 62.1103L9.06738 62.6142L9.56731 62.4838L9.44115 62ZM1.07386 24.9872L0.584776 25.0913L0.586163 25.0974L1.07386 24.9872ZM10.5859 39.7466L10.0992 39.861L10.1993 40.2867L10.6345 40.2442L10.5859 39.7466ZM7.73743 27.6355L7.75213 27.1357L7.10174 27.1166L7.25071 27.75L7.73743 27.6355ZM20.8138 28.0202L21.3131 28.0453L21.3387 27.5354L20.8285 27.5204L20.8138 28.0202ZM20.2725 38.8011L20.3211 39.2987L20.7503 39.2568L20.7719 38.8261L20.2725 38.8011ZM80.1308 23.8003L80.6278 23.7456L80.6274 23.7426L80.1308 23.8003ZM76.8046 21.0445L76.8427 21.5431L76.8046 21.0445ZM82.7784 47.8499L82.8487 48.3449L83.3285 48.2768L83.2754 47.7952L82.7784 47.8499ZM60.5949 51.0004L60.5246 50.5054L60.1723 50.5555L60.1042 50.9048L60.5949 51.0004ZM58.6007 61.23L58.508 61.7213L58.9964 61.8134L59.0914 61.3256L58.6007 61.23ZM52.4844 60.0762L51.9929 59.9844L51.9013 60.475L52.3917 60.5675L52.4844 60.0762ZM59.0846 24.7237L59.5761 24.8155L59.0846 24.7237ZM61.9071 22.1819L61.869 21.6833L61.9071 22.1819ZM75.8711 41.0583L75.9539 41.5514L76.4226 41.4727L76.3678 41.0006L75.8711 41.0583ZM61.9071 43.4032L61.4157 43.3108L61.2832 44.015L61.9899 43.8963L61.9071 43.4032ZM74.2965 27.5094L74.7931 27.4517L74.7377 26.9743L74.2584 27.0109L74.2965 27.5094ZM64.7603 28.2375L64.7222 27.7389L64.3398 27.7681L64.2689 28.145L64.7603 28.2375ZM83.9401 27.791L84.0854 27.3125L83.3659 27.094L83.4427 27.842L83.9401 27.791ZM86.031 48.1609L85.5336 48.212L85.5712 48.5786L85.9326 48.6511L86.031 48.1609ZM92.2263 49.4049L92.1279 49.8951L92.6953 50.009L92.7256 49.4311L92.2263 49.4049ZM91.9882 30.2351L91.8429 30.7136L91.8429 30.7136L91.9882 30.2351ZM93.1454 31.8945L92.6462 31.8667L92.6461 31.8683L93.1454 31.8945ZM96.2342 48.2394L95.7351 48.2084L95.7037 48.7128L96.2085 48.7388L96.2342 48.2394ZM115.375 45.5843L115.853 45.438L115.851 45.4309L115.848 45.4239L115.375 45.5843ZM113.866 41.1297L114.34 40.9693L114.209 40.5836L113.805 40.6335L113.866 41.1297ZM103.117 42.4566L102.621 42.3954L102.542 43.0314L103.178 42.9529L103.117 42.4566ZM104.72 29.4719L104.681 28.9734L104.274 29.005L104.224 29.4107L104.72 29.4719ZM114.375 28.7239L114.413 29.2225L115.021 29.1754L114.856 28.5887L114.375 28.7239ZM112.671 22.6596L113.152 22.5244L113.028 22.0813L112.576 22.1687L112.671 22.6596ZM105.38 24.0696L104.884 24.0114L104.804 24.6902L105.475 24.5605L105.38 24.0696ZM108.02 1.51221L108.517 1.57033L108.611 0.767988L107.851 1.04181L108.02 1.51221ZM116.506 49.2807L116.48 49.78L117.193 49.8166L116.984 49.1344L116.506 49.2807ZM98.8089 6.87681L98.3099 6.84421L98.3098 6.84574L98.8089 6.87681ZM101.091 4.00874L100.921 3.53834L101.091 4.00874ZM55.2372 24.7667C55.4162 23.7365 55.2453 22.6246 54.5405 21.7765L53.7714 22.4157C54.243 22.9832 54.3945 23.775 54.2519 24.5954L55.2372 24.7667ZM50.8226 49.4927L55.2368 24.7689L54.2523 24.5932L49.8382 49.317L50.8226 49.4927ZM31.7961 46.0067L50.2272 49.8941L50.4336 48.9156L32.0024 45.0282L31.7961 46.0067ZM29.9462 40.3647L31.4176 45.6515L32.3809 45.3834L30.9095 40.0966L29.9462 40.3647ZM43.5683 27.257L30.0863 39.8654L30.7694 40.5958L44.2514 27.9874L43.5683 27.257ZM30.698 28.7973L43.9354 28.1216L43.8844 27.1229L30.647 27.7986L30.698 28.7973ZM29.8898 22.1643L30.173 28.3209L31.172 28.275L30.8887 22.1184L29.8898 22.1643ZM51.7875 20.5484L30.3638 21.642L30.4148 22.6407L51.8385 21.5471L51.7875 20.5484ZM54.5405 21.7765C53.8552 20.9519 52.8424 20.4946 51.7875 20.5484L51.8385 21.5471C52.5675 21.5099 53.2803 21.8247 53.7714 22.4157L54.5405 21.7765ZM39.3189 40.9789L47.8716 32.8486L47.1826 32.1238L38.63 40.2541L39.3189 40.9789ZM45.9766 41.462L39.0694 40.1256L38.8795 41.1074L45.7866 42.4438L45.9766 41.462ZM47.0345 32.4006L45.389 41.8673L46.3742 42.0385L48.0197 32.5718L47.0345 32.4006ZM142.078 24.5923C142.266 23.5611 141.975 22.4996 141.288 21.7099L140.533 22.3667C141.021 22.9265 141.228 23.6802 141.094 24.4131L142.078 24.5923ZM138.06 49.442L142.08 24.5826L141.093 24.4229L137.073 49.2824L138.06 49.442ZM119.586 47.8804L137.512 49.8592L137.622 48.8652L119.696 46.8864L119.586 47.8804ZM117.142 40.2516L119.159 47.5171L120.122 47.2497L118.106 39.9842L117.142 40.2516ZM130.324 26.9499L117.274 39.7611L117.974 40.4747L131.024 27.6635L130.324 26.9499ZM117.491 28.9058L130.716 27.8049L130.633 26.8084L117.408 27.9093L117.491 28.9058ZM116.667 22.436L116.95 28.4311L117.949 28.384L117.666 22.3889L116.667 22.436ZM138.538 20.5399L117.134 21.9135L117.198 22.9114L138.602 21.5378L138.538 20.5399ZM141.288 21.7099C140.6 20.9201 139.59 20.4886 138.545 20.5395L138.594 21.5383C139.332 21.5024 140.046 21.807 140.533 22.3667L141.288 21.7099ZM124.495 42.3369L134.64 32.2992L133.936 31.5884L123.792 41.6261L124.495 42.3369ZM132.656 43.5814L124.264 41.4963L124.023 42.4668L132.415 44.5519L132.656 43.5814ZM133.793 31.8722L132.04 43.9951L133.03 44.1382L134.783 32.0153L133.793 31.8722ZM4.2122 20.5457C3.0917 20.5126 2.02568 21.0204 1.3202 21.9107L2.10395 22.5318C2.61916 21.8816 3.38714 21.5218 4.18271 21.5452L4.2122 20.5457ZM15.8909 60.3308L12.5274 46.0007L11.5539 46.2292L14.9174 60.5593L15.8909 60.3308ZM9.56731 62.4838L15.5303 60.9289L15.278 59.9612L9.31498 61.5162L9.56731 62.4838ZM1.3202 21.9107C0.61572 22.7997 0.346701 23.9727 0.584814 25.0913L1.5629 24.8831C1.3858 24.0512 1.58774 23.1832 2.10395 22.5318L1.3202 21.9107ZM11.0726 39.6321L8.22415 27.521L7.25071 27.75L10.0992 39.861L11.0726 39.6321ZM7.72272 28.1353L20.7991 28.52L20.8285 27.5204L7.75213 27.1357L7.72272 28.1353ZM20.3144 27.9951L19.7732 38.776L20.7719 38.8261L21.3131 28.0453L20.3144 27.9951ZM20.224 38.3034L10.5374 39.2489L10.6345 40.2442L20.3211 39.2987L20.224 38.3034ZM27.2765 21.6419L4.2212 20.546L4.17372 21.5449L27.229 22.6408L27.2765 21.6419ZM26.7017 44.7559L27.7522 22.1646L26.7533 22.1181L25.7027 44.7094L26.7017 44.7559ZM12.0892 46.6125L26.2508 45.2303L26.1536 44.235L11.992 45.6173L12.0892 46.6125ZM0.586163 25.0974L8.95345 62.1103L9.92884 61.8898L1.56155 24.8769L0.586163 25.0974ZM80.6274 23.7426C80.403 21.8114 78.7012 20.3983 76.7666 20.546L76.8427 21.5431C78.2374 21.4366 79.4711 22.4557 79.6341 23.8581L80.6274 23.7426ZM59.0914 61.3256L61.0857 51.0961L60.1042 50.9048L58.1099 61.1343L59.0914 61.3256ZM52.3917 60.5675L58.508 61.7213L58.6934 60.7386L52.5771 59.5849L52.3917 60.5675ZM61.869 21.6833C60.2368 21.8079 58.8942 23.019 58.5931 24.6319L59.5761 24.8155C59.7947 23.6447 60.7678 22.7703 61.9452 22.6804L61.869 21.6833ZM76.7666 20.546L61.869 21.6833L61.9452 22.6804L76.8427 21.5431L76.7666 20.546ZM75.7883 40.5652L61.8243 42.9101L61.9899 43.8963L75.9539 41.5514L75.7883 40.5652ZM73.7998 27.5672L75.3745 41.116L76.3678 41.0006L74.7931 27.4517L73.7998 27.5672ZM64.7983 28.736L74.3345 28.008L74.2584 27.0109L64.7222 27.7389L64.7983 28.736ZM62.3985 43.4957L65.2516 28.3299L64.2689 28.145L61.4157 43.3108L62.3985 43.4957ZM83.2754 47.7952L80.6278 23.7456L79.6338 23.8551L82.2814 47.9046L83.2754 47.7952ZM60.6652 51.4955L82.8487 48.3449L82.7081 47.3549L60.5246 50.5054L60.6652 51.4955ZM58.5931 24.6319L51.9929 59.9844L52.9759 60.1679L59.5761 24.8155L58.5931 24.6319ZM83.4427 27.842L85.5336 48.212L86.5284 48.1098L84.4375 27.7399L83.4427 27.842ZM92.1335 29.7567L84.0854 27.3125L83.7948 28.2694L91.8429 30.7136L92.1335 29.7567ZM92.7256 49.4311L93.6447 31.9207L92.6461 31.8683L91.727 49.3787L92.7256 49.4311ZM85.9326 48.6511L92.1279 49.8951L92.3248 48.9146L86.1294 47.6707L85.9326 48.6511ZM91.8429 30.7136C92.3424 30.8653 92.6754 31.3411 92.6462 31.8667L93.6446 31.9223C93.6994 30.9384 93.0761 30.043 92.1334 29.7567L91.8429 30.7136ZM96.7332 48.2705L99.3079 6.90787L98.3098 6.84574L95.7351 48.2084L96.7332 48.2705ZM113.393 41.2901L114.901 45.7447L115.848 45.4239L114.34 40.9693L113.393 41.2901ZM103.178 42.9529L113.927 41.626L113.805 40.6335L103.056 41.9604L103.178 42.9529ZM104.224 29.4107L102.621 42.3954L103.613 42.5179L105.216 29.5332L104.224 29.4107ZM114.336 28.2254L104.681 28.9734L104.759 29.9705L114.413 29.2225L114.336 28.2254ZM112.19 22.7948L113.893 28.8592L114.856 28.5887L113.152 22.5244L112.19 22.7948ZM105.475 24.5605L112.766 23.1505L112.576 22.1687L105.285 23.5786L105.475 24.5605ZM107.524 1.45408L104.884 24.0114L105.877 24.1277L108.517 1.57033L107.524 1.45408ZM101.26 4.47914L108.19 1.98261L107.851 1.04181L100.921 3.53834L101.26 4.47914ZM114.897 45.7307L116.028 49.427L116.984 49.1344L115.853 45.438L114.897 45.7307ZM116.532 48.7814L96.2598 47.7401L96.2085 48.7388L116.48 49.78L116.532 48.7814ZM99.3078 6.9094C99.3779 5.83625 100.194 4.86334 101.26 4.47914L100.921 3.53834C99.5408 4.03578 98.4099 5.31421 98.3099 6.84421L99.3078 6.9094Z" fill="white"/>
<path d="M88.4081 15.6236L89.0763 14.4408C89.1083 14.3838 89.1791 14.3646 89.2349 14.3972L89.8178 14.7413C90.1011 14.9086 90.1983 15.2795 90.0347 15.5691L89.5997 16.34C89.5614 16.4072 89.6091 16.4912 89.6855 16.4912L91.0319 16.4912C91.0965 16.4912 91.1491 16.5456 91.1479 16.6116L91.1366 17.3075C91.1316 17.6381 90.8677 17.904 90.5436 17.904L89.6968 17.904C89.621 17.904 89.5733 17.9879 89.6116 18.0552L90.2685 19.2175C90.3004 19.2745 90.281 19.3476 90.2252 19.3802L89.6367 19.7211C89.3533 19.8851 88.9936 19.7852 88.8306 19.4968L88.4094 18.7517C88.3711 18.6844 88.2765 18.6844 88.2383 18.7517L87.582 19.9146C87.55 19.9716 87.4792 19.9908 87.4234 19.9582L86.8405 19.6141C86.5572 19.4469 86.46 19.0759 86.6236 18.7863L87.0367 18.0546C87.0749 17.9873 87.0273 17.9033 86.9508 17.9033L85.6464 17.9033C85.5831 17.9033 85.5317 17.8514 85.5305 17.7867L85.5198 17.1069C85.5142 16.7686 85.7812 16.4905 86.1128 16.4905L86.9627 16.4905C87.0385 16.4905 87.0862 16.4066 87.0486 16.3393L86.3798 15.1552C86.3478 15.0989 86.3666 15.0264 86.4211 14.9938L86.9978 14.6471C87.2817 14.4767 87.6472 14.5747 87.812 14.8663L88.2395 15.623C88.2777 15.6902 88.3724 15.6902 88.4106 15.623L88.4081 15.6236Z" fill="#FF5C00"/>
<path d="M90.6405 14.8841C90.5105 14.9583 90.4095 15.062 90.3398 15.1828C90.3398 15.1828 90.3381 15.1857 90.3346 15.1915C90.2911 15.2659 89.9564 15.8105 88.911 16.5065C88.8224 16.5655 88.7031 16.4975 88.7107 16.3906C88.7938 15.1498 89.0753 14.6106 89.1346 14.5092C89.1419 14.4968 89.1453 14.491 89.1453 14.491C89.2154 14.3714 89.2573 14.2326 89.2581 14.0836C89.2603 13.6387 88.8983 13.277 88.4505 13.2748C88.0031 13.2738 87.6388 13.6324 87.6374 14.0777C87.6366 14.2267 87.6772 14.3654 87.7464 14.4855C87.7464 14.4855 87.7485 14.4886 87.7519 14.4945C87.7954 14.5695 88.1021 15.1296 88.1863 16.3783C88.1932 16.4838 88.0743 16.5527 87.9852 16.4934C86.9457 15.8004 86.6165 15.2888 86.5576 15.1864C86.55 15.1742 86.547 15.1676 86.547 15.1676C86.4777 15.0444 86.3734 14.9373 86.2404 14.8623C85.8679 14.6528 85.3802 14.7759 85.1539 15.1371C84.9115 15.5241 85.04 16.031 85.4342 16.259C85.5633 16.3337 85.7049 16.3687 85.8446 16.3685C85.8446 16.3685 85.8477 16.3683 85.8545 16.3683C85.9421 16.3682 86.5837 16.3849 87.7137 16.9369C87.8093 16.9833 87.8097 17.1203 87.7134 17.1671C86.5896 17.7152 85.979 17.7428 85.8607 17.7418C85.8466 17.7424 85.8394 17.7412 85.8394 17.7412C85.6999 17.7396 85.5588 17.7742 85.4288 17.8484C85.0398 18.0696 84.906 18.5615 85.1279 18.9476C85.351 19.3334 85.8463 19.4675 86.2345 19.2459C86.3645 19.1716 86.4655 19.068 86.5352 18.9472C86.5352 18.9472 86.5369 18.9443 86.5404 18.9384C86.5839 18.8641 86.9186 18.3195 87.9651 17.6232C88.0538 17.5641 88.1731 17.6322 88.1655 17.7391C88.0824 18.9798 87.7997 19.5194 87.7404 19.6208C87.7331 19.6332 87.7297 19.639 87.7297 19.639C87.6582 19.7578 87.6177 19.8974 87.6169 20.0463C87.6147 20.4913 87.9767 20.853 88.4237 20.8547C88.8719 20.8562 89.2362 20.4976 89.2376 20.0522C89.2384 19.9033 89.1978 19.7646 89.1286 19.6445C89.1286 19.6445 89.1265 19.6413 89.1231 19.6355C89.0796 19.5605 88.7722 18.9999 88.6887 17.7517C88.6818 17.6461 88.8007 17.5772 88.8898 17.6366C89.9293 18.3295 90.2585 18.8412 90.3174 18.9436C90.325 18.9558 90.328 18.9624 90.328 18.9624C90.3973 19.0855 90.5016 19.1927 90.6346 19.2676C91.0071 19.4772 91.4948 19.3541 91.7218 18.9933C91.9647 18.6055 91.8361 18.0986 91.442 17.8707C91.3128 17.796 91.1712 17.7609 91.0315 17.7612C91.0315 17.7612 91.0285 17.7614 91.0216 17.7613C90.9341 17.7615 90.2931 17.7452 89.1639 17.1937C89.0683 17.1472 89.068 17.0102 89.1642 16.9634C90.2873 16.4149 90.8972 16.3868 91.0162 16.3883C91.0306 16.3888 91.0382 16.3893 91.0382 16.3893C91.1777 16.3909 91.3189 16.3563 91.4488 16.2821C91.8378 16.0609 91.9716 15.569 91.749 15.1825C91.5266 14.7971 91.0314 14.663 90.6431 14.8846L90.6405 14.8841Z" fill="#FF0091"/>
<path d="M89.1555 23.4323C91.6247 24.5913 93.775 26.4959 95.2411 29.0423C93.778 26.4967 93.2119 23.6708 93.4474 20.9433C96.0195 20.0097 98.8848 19.8278 101.724 20.5853C98.8878 19.8286 96.4947 18.2441 94.7361 16.1553C95.9021 13.676 97.81 11.5165 100.356 10.0372C97.8108 11.5135 94.992 12.0926 92.2707 11.8703C91.35 9.29295 91.1797 6.4219 91.9465 3.57308C91.1805 6.41891 89.5873 8.82275 87.4985 10.5973C85.03 9.43528 82.8798 7.53065 81.4137 4.98427C82.8768 7.52985 83.4437 10.3527 83.2112 13.0811C80.6391 14.0147 77.7738 14.1965 74.9343 13.4391C77.7708 14.1957 80.163 15.7832 81.9225 17.869C80.7535 20.3476 78.8448 22.5101 76.2984 23.9894C78.844 22.5131 81.6657 21.9348 84.3892 22.1609C85.3077 24.7344 85.478 27.6055 84.7121 30.4513C85.4772 27.6085 87.0705 25.2046 89.1555 23.4323Z" fill="#B5FF62"/>
</svg>
